<?xml version="1.0" encoding="UTF-8" standalone="no"?>
<!DOCTYPE svg PUBLIC "-//W3C//DTD SVG 20010904//EN"
              "http://www.w3.org/TR/2001/REC-SVG-20010904/DTD/svg10.dtd">

<svg xmlns="http://www.w3.org/2000/svg"
     width="2.77778in" height="2.77778in"
     viewBox="0 0 200 200">
  <path id="outline"
        fill="none" stroke="black" stroke-width="1"
        d="M 54.52,159.64
           C 57.47,161.70 60.66,163.60 64.00,165.24
             72.93,169.64 84.00,172.88 94.00,173.00
             106.45,173.14 116.59,171.57 128.00,166.22
             132.55,164.08 136.49,161.95 140.12,159.46
             140.25,127.75 150.75,120.00 167.62,119.80
             181.49,70.66 139.19,23.11 88.00,29.43
             64.01,33.35 44.05,45.00 32.32,67.00
             23.21,84.09 21.69,103.12 26.54,120.30
             26.54,120.30 26.54,120.30 26.54,120.30
             26.54,120.30 26.66,120.29 26.72,120.29
             37.08,119.68 54.50,124.50 54.52,159.30
             54.52,159.59 54.52,159.48 54.52,159.64 Z
           M 100.00,112.43
           C 86.37,116.17 77.53,95.02 94.00,88.57
             111.25,85.84 113.81,108.63 100.00,112.43 Z
           M 114.20,110.43
           C 114.73,104.82 117.41,102.91 124.00,101.00
             120.45,88.46 112.35,77.55 95.27,77.55
             76.00,78.27 73.03,67.36 72.97,63.12
             73.45,53.36 85.68,51.11 90.00,50.44
             95.55,49.57 101.52,49.89 107.00,51.00
             147.84,59.33 160.92,110.51 130.00,137.82
             129.10,138.62 128.20,139.36 127.29,140.05
             126.91,117.91 113.64,122.82 114.20,110.43 Z
           M 79.80,90.57
           C 79.27,96.18 76.59,98.09 70.00,100.00
             73.55,112.54 81.65,123.45 98.73,123.45
             118.00,122.73 120.97,133.64 121.03,137.88
             120.55,147.64 108.32,149.89 104.00,150.56
             98.45,151.43 92.48,151.11 87.00,150.00
             46.16,141.67 33.08,90.49 64.00,63.18
             64.90,62.38 65.80,61.64 66.71,60.95
             67.09,83.09 80.36,78.18 79.80,90.57 Z" />
</svg>
